<svg width="24" height="24" viewBox="0 0 24 24" fill="none" xmlns="http://www.w3.org/2000/svg">
<rect x="0.5" y="0.5" width="23" height="23" rx="3.5" fill="white"/>
<rect x="0.5" y="0.5" width="23" height="23" rx="3.5" stroke="#D4D4D4"/>
<mask id="mask0_4648_11293" style="mask-type:luminance" maskUnits="userSpaceOnUse" x="6" y="6" width="12" height="12">
<path d="M18 6H6V18H18V6Z" fill="white"/>
</mask>
<g mask="url(#mask0_4648_11293)">
<path d="M17.76 12.1364C17.76 11.7109 17.7218 11.3018 17.6509 10.9091H12V13.23H15.2291C15.09 13.98 14.6673 14.6154 14.0318 15.0409V16.5464H15.9709C17.1055 15.5018 17.76 13.9636 17.76 12.1364Z" fill="#4285F4"/>
<path d="M12 18C13.62 18 14.9782 17.4627 15.9709 16.5464L14.0318 15.0409C13.4946 15.4009 12.8073 15.6136 12 15.6136C10.4373 15.6136 9.11456 14.5582 8.64272 13.14H6.63818V14.6946C7.62548 16.6555 9.65456 18 12 18Z" fill="#34A853"/>
<path d="M8.6427 13.14C8.5227 12.78 8.45454 12.3954 8.45454 12C8.45454 11.6045 8.5227 11.22 8.6427 10.86V9.30542H6.63816C6.23184 10.1154 6 11.0318 6 12C6 12.9681 6.23184 13.8845 6.63816 14.6945L8.6427 13.14Z" fill="#FBBC04"/>
<path d="M12 8.38638C12.8809 8.38638 13.6718 8.68908 14.2936 9.28362L16.0146 7.5627C14.9755 6.59454 13.6173 6 12 6C9.65456 6 7.62548 7.34454 6.63818 9.30546L8.64272 10.86C9.11456 9.44184 10.4373 8.38638 12 8.38638Z" fill="#E94235"/>
</g>
</svg>
