<svg width="16" height="16" viewBox="0 0 16 16" fill="none" xmlns="http://www.w3.org/2000/svg">
<g clip-path="url(#clip0_7139_5607)">
<path d="M3.9259 1.90239C5.13186 1.0966 6.54969 0.666504 8.00008 0.666504C9.945 0.666504 11.8103 1.43912 13.1855 2.81439C14.5608 4.18965 15.3334 6.05491 15.3334 7.99984C15.3334 9.45023 14.9033 10.8681 14.0975 12.074C13.2917 13.28 12.1464 14.2199 10.8064 14.775C9.46644 15.33 7.99195 15.4752 6.56942 15.1923C5.14689 14.9093 3.84022 14.2109 2.81463 13.1853C1.78905 12.1597 1.09062 10.853 0.807659 9.4305C0.524701 8.00797 0.669926 6.53348 1.22497 5.19349C1.78001 3.8535 2.71994 2.70819 3.9259 1.90239Z" fill="#56BC44"/>
<path d="M5 8L7 10L11 6" stroke="white" stroke-linecap="round" stroke-linejoin="round"/>
</g>
<defs>
<clipPath id="clip0_7139_5607">
<rect width="16" height="16" fill="white"/>
</clipPath>
</defs>
</svg>
