<svg width="40" height="40" viewBox="0 0 40 40" fill="none" xmlns="http://www.w3.org/2000/svg">
<mask id="mask0_4368_17745" style="mask-type:luminance" maskUnits="userSpaceOnUse" x="10" y="10" width="20" height="20">
<path d="M30 10H10V30H30V10Z" fill="white"/>
</mask>
<g mask="url(#mask0_4368_17745)">
<path d="M29.6 20.2271C29.6 19.518 29.5364 18.8362 29.4182 18.1816H20V22.0498H25.3818C25.15 23.2998 24.4455 24.3589 23.3864 25.068V27.5771H26.6182C28.5091 25.8362 29.6 23.2725 29.6 20.2271Z" fill="#4285F4"/>
<path d="M20.0001 30.0004C22.7001 30.0004 24.9637 29.1049 26.6182 27.5777L23.3864 25.0686C22.491 25.6686 21.3455 26.0231 20.0001 26.0231C17.3955 26.0231 15.191 24.264 14.4046 21.9004H11.0637V24.4913C12.7092 27.7595 16.091 30.0004 20.0001 30.0004Z" fill="#34A853"/>
<path d="M14.4045 21.8997C14.2045 21.2997 14.0909 20.6588 14.0909 19.9997C14.0909 19.3406 14.2045 18.6997 14.4045 18.0997V15.5088H11.0636C10.3864 16.8588 10 18.3861 10 19.9997C10 21.6133 10.3864 23.1406 11.0636 24.4906L14.4045 21.8997Z" fill="#FBBC04"/>
<path d="M20.0001 13.9773C21.4682 13.9773 22.7864 14.4818 23.8228 15.4727L26.691 12.6045C24.9592 10.9909 22.6955 10 20.0001 10C16.091 10 12.7092 12.2409 11.0637 15.5091L14.4046 18.1C15.191 15.7364 17.3955 13.9773 20.0001 13.9773Z" fill="#E94235"/>
</g>
</svg>
